<?xml version="1.0" encoding="UTF-8"?>
<svg width="12px" height="12px" viewBox="0 0 12 12" version="1.1" xmlns="http://www.w3.org/2000/svg" xmlns:xlink="http://www.w3.org/1999/xlink">
    <!-- Generator: Sketch 48.2 (47327) - http://www.bohemiancoding.com/sketch -->
    <title>instagram</title>
    <desc>Created with Sketch.</desc>
    <defs></defs>
    <g id="1200_adress" stroke="none" stroke-width="1" fill="none" fill-rule="evenodd" transform="translate(-268.000000, -597.000000)">
        <g id="contacts" transform="translate(0.000000, -27.000000)" fill="#000000">
            <g id="icons" transform="translate(267.000000, 622.000000)">
                <g id="instagram" transform="translate(0.000000, 1.000000)">
                    <g id="Page-1" transform="translate(1.000000, 1.000000)">
                        <path d="M5.999625,3.5610375 C4.65225,3.5610375 3.56025,4.6526625 3.56025,5.9992875 C3.56025,7.3474125 4.65225,8.4394125 5.999625,8.4394125 C7.348125,8.4394125 8.43975,7.3474125 8.43975,5.9992875 C8.43975,4.6526625 7.348125,3.5610375 5.999625,3.5610375" id="Fill-1"></path>
                        <path d="M9.906375,2.9719875 C9.421875,2.9719875 9.02775,2.5789875 9.02775,2.0929875 C9.02775,1.6084875 9.421875,1.2154875 9.906375,1.2154875 C10.390875,1.2154875 10.784625,1.6084875 10.784625,2.0929875 C10.784625,2.5789875 10.390875,2.9719875 9.906375,2.9719875 M5.999625,9.7572375 C3.923625,9.7572375 2.242125,8.0753625 2.242125,5.9993625 C2.242125,3.9241125 3.923625,2.2418625 5.999625,2.2418625 C8.075625,2.2418625 9.757875,3.9241125 9.757875,5.9993625 C9.757875,8.0753625 8.075625,9.7572375 5.999625,9.7572375 M11.95725,3.0424875 C11.92425,2.3288625 11.805,1.9411125 11.70525,1.6827375 C11.57175,1.3418625 11.413125,1.0984875 11.15775,0.8423625 C10.902,0.5866125 10.65675,0.4272375 10.315875,0.2952375 C10.05825,0.1954875 9.67125,0.0758625 8.957625,0.0424875 C8.185125,0.0076125 7.95375,0.0001125 5.999625,0.0001125 C4.04625,0.0001125 3.8145,0.0076125 3.04275,0.0424875 C2.329875,0.0758625 1.942125,0.1954875 1.68375,0.2952375 C1.3425,0.4272375 1.098375,0.5866125 0.842625,0.8423625 C0.586125,1.0984875 0.427875,1.3418625 0.295125,1.6827375 C0.195375,1.9411125 0.075,2.3288625 0.043125,3.0424875 C0.007875,3.8138625 0,4.0456125 0,5.9993625 C0,7.9531125 0.007875,8.1852375 0.043125,8.9581125 C0.075,9.6706125 0.195375,10.0587375 0.295125,10.3159875 C0.427875,10.6572375 0.586125,10.9017375 0.842625,11.1582375 C1.098375,11.4139875 1.3425,11.5722375 1.68375,11.7053625 C1.942125,11.8051125 2.329875,11.9236125 3.04275,11.9566125 C3.8145,11.9918625 4.04625,11.9989875 5.999625,11.9989875 C7.954125,11.9989875 8.185125,11.9918625 8.957625,11.9566125 C9.67125,11.9236125 10.05825,11.8051125 10.315875,11.7053625 C10.65675,11.5722375 10.902,11.4139875 11.15775,11.1582375 C11.413125,10.9017375 11.57175,10.6572375 11.70525,10.3159875 C11.805,10.0587375 11.92425,9.6706125 11.95725,8.9581125 C11.992125,8.1852375 12,7.9531125 12,5.9993625 C12,4.0456125 11.992125,3.8138625 11.95725,3.0424875" id="Fill-3"></path>
                    </g>
                </g>
            </g>
        </g>
    </g>
</svg>