<?xml version="1.0" encoding="UTF-8"?>
<svg width="184px" height="19px" viewBox="0 0 184 19" version="1.1" xmlns="http://www.w3.org/2000/svg" xmlns:xlink="http://www.w3.org/1999/xlink">
    <!-- Generator: Sketch 48.2 (47327) - http://www.bohemiancoding.com/sketch -->
    <title>Page 1</title>
    <desc>Created with Sketch.</desc>
    <defs>
        <polygon id="path-1" points="19.6751209 0.240928882 0.0668661557 0.240928882 0.0668661557 18.8678882 19.6751209 18.8678882 19.6751209 0.240928882"></polygon>
        <polygon id="path-3" points="19.8551759 0.240928882 0.247284788 0.240928882 0.247284788 18.8678882 19.8551759 18.8678882 19.8551759 0.240928882"></polygon>
        <polygon id="path-5" points="15.6838404 0.240928882 0.0286517296 0.240928882 0.0286517296 18.8678882 15.6838404 18.8678882 15.6838404 0.240928882"></polygon>
        <polygon id="path-7" points="8.76686566 18.8679245 17.222671 18.8679245 17.222671 0.240928882 8.76686566 0.240928882 0.311060338 0.240928882 0.311060338 18.8679245 8.76686566 18.8679245"></polygon>
    </defs>
    <g id="1200_main" stroke="none" stroke-width="1" fill="none" fill-rule="evenodd" transform="translate(-507.000000, -61.000000)">
        <g id="Group-8" transform="translate(79.000000, 35.000000)">
            <g id="Page-1" transform="translate(428.000000, 26.000000)">
                <path d="M0.144167649,15.3585269 C0.187436124,14.2442308 0.209615763,13.1117925 0.209615763,11.9623004 L0.209615763,7.46883164 C0.209615763,6.31933962 0.187436124,5.19161829 0.144167649,4.08566763 C0.100171973,2.97971698 0.0525402909,1.85199565 0.000181800314,0.702503628 C0.226704992,0.737699565 0.44522897,0.767815675 0.654299332,0.793940493 C0.863733294,0.820065312 1.07353086,0.833127721 1.28260122,0.833127721 C1.49203518,0.833127721 1.70146914,0.820065312 1.91090311,0.793940493 C2.12070067,0.767815675 2.33849744,0.737699565 2.56574784,0.702503628 C2.51338935,1.85199565 2.46503046,2.97971698 2.42176199,4.08566763 C2.37776631,5.19161829 2.35631388,6.31933962 2.35631388,7.46883164 L2.35631388,8.90569666 C2.35631388,9.04539187 2.40867237,9.11433237 2.51338935,9.11433237 C2.58283707,9.11433237 2.70500688,9.03632075 2.87953518,8.87957184 C3.49038424,8.35707547 4.13177575,7.76491292 4.80370971,7.10308418 C5.47528007,6.44125544 6.15194084,5.75330189 6.83296482,5.03922351 C7.5136252,4.32514514 8.18519556,3.59800435 8.84840311,2.85780116 C9.51197425,2.11759797 10.148639,1.39916546 10.759488,0.702503628 C10.9514691,0.737699565 11.1347239,0.767815675 11.3092522,0.793940493 C11.4837805,0.820065312 11.6583088,0.833127721 11.8328371,0.833127721 C12.0426346,0.833127721 12.251705,0.820065312 12.461139,0.793940493 C12.6705729,0.767815675 12.8800069,0.737699565 13.0898044,0.702503628 C12.4785918,1.225 11.789205,1.84328737 11.0216441,2.55736575 C10.2533559,3.27144412 9.4810682,4.00330189 8.70441726,4.75185051 C7.92776631,5.50076197 7.18602103,6.23661103 6.47954501,6.95939768 C5.77234178,7.68218433 5.18330877,8.31353411 4.71208235,8.85344702 C6.1257616,10.4379898 7.55253046,12.0537373 8.99275256,13.6996009 C10.4322474,15.3454644 11.8935584,16.9956821 13.3777761,18.650254 C13.1159837,18.6150581 12.8538276,18.5980044 12.5920352,18.5980044 L11.8070214,18.5980044 L11.0870922,18.5980044 C10.8511154,18.5980044 10.611139,18.6150581 10.3667993,18.650254 C9.73886105,17.9361756 9.04474744,17.1179608 8.28591293,16.194521 C7.52671482,15.2714441 6.78460594,14.3788462 6.06031348,13.5167271 C5.33602103,12.6546081 4.6815399,11.8795718 4.09687009,11.1916183 C3.51220028,10.5036647 3.07987913,10.0203556 2.80136105,9.74169086 C2.6613748,9.60272134 2.55665782,9.53232946 2.4868465,9.53232946 C2.39958235,9.53232946 2.35631388,9.58494194 2.35631388,9.68944122 L2.35631388,11.9623004 C2.35631388,13.1117925 2.37776631,14.2442308 2.42176199,15.3585269 C2.46503046,16.4731858 2.51338935,17.5704282 2.56574784,18.650254 C2.16396914,18.6150581 1.7363748,18.5980044 1.28260122,18.5980044 C0.828827634,18.5980044 0.401233294,18.6150581 0.000181800314,18.650254 C0.0525402909,17.5704282 0.100171973,16.4731858 0.144167649,15.3585269" id="Fill-1" fill="#000000"></path>
                <path d="M16.401079,4.04637155 C16.3578105,2.93207547 16.3094517,1.8170537 16.2570932,0.702394775 C17.0428341,0.737590711 17.8234847,0.767706821 18.6004992,0.79383164 C19.3767866,0.819956459 20.1578007,0.833018868 20.9431781,0.833018868 C21.7285554,0.833018868 22.5048428,0.819956459 23.2731309,0.79383164 C24.0410554,0.767706821 24.8177064,0.737590711 25.6034473,0.702394775 C25.5507252,0.963642961 25.524546,1.22489115 25.524546,1.48613933 C25.524546,1.74738752 25.5507252,2.0086357 25.6034473,2.26988389 C25.0442296,2.2350508 24.5337343,2.20058055 24.0719615,2.16538462 C23.6090979,2.13055152 23.1204186,2.09608128 22.6055601,2.06088534 C22.0907017,2.02641509 21.5278479,1.99557329 20.9169988,1.96944848 C20.3061498,1.94332366 19.5731309,1.93026125 18.7183058,1.93026125 C18.7004894,2.48795356 18.6790369,3.01879536 18.6524941,3.52387518 C18.6266785,4.02931785 18.6132252,4.60406386 18.6132252,5.24811321 C18.6132252,5.92735849 18.6175884,6.58955007 18.6266785,7.23359942 C18.6354049,7.87837446 18.6394045,8.36603774 18.6394045,8.69658926 C19.407329,8.69658926 20.0967158,8.68788099 20.7079285,8.67046444 C21.3180503,8.65341074 21.8769045,8.63127721 22.3834002,8.60515239 C22.8891686,8.57902758 23.3560318,8.55290276 23.7839898,8.52677794 C24.2112205,8.50065312 24.6169988,8.47053701 25.0009611,8.43534107 C24.9486026,8.69658926 24.9227869,8.96690856 24.9227869,9.24557329 C24.9227869,9.50609579 24.9486026,9.76770682 25.0009611,10.028955 C24.5471875,9.97670537 24.019603,9.93352685 23.4174803,9.89796807 C22.8153577,9.86349782 22.2128715,9.84208999 21.6107488,9.83301887 C21.0086262,9.8243106 20.4414092,9.81596517 19.9090979,9.8065312 C19.3767866,9.79818578 18.953919,9.79383164 18.6394045,9.79383164 C18.6394045,9.95058055 18.6354049,10.1207547 18.6266785,10.3036284 C18.6175884,10.4865022 18.6132252,10.7172714 18.6132252,10.9955733 L18.6132252,12.0140784 L18.6132252,13.5819303 C18.6132252,14.5746734 18.6175884,15.3936139 18.6266785,16.0373004 C18.6354049,16.6824383 18.6481309,17.1697388 18.6659473,17.501016 L20.4984945,17.501016 C21.1613384,17.501016 21.8114564,17.4872279 22.4488483,17.4614659 C23.0858766,17.4353411 23.6876356,17.400508 24.2552162,17.3569666 C24.8220696,17.3137881 25.3154756,17.2484761 25.73398,17.1610305 C25.6990743,17.2833091 25.6772583,17.4179245 25.6685318,17.5659652 C25.6598054,17.7140058 25.6558058,17.8493469 25.6558058,17.970537 C25.6558058,18.2499274 25.6816215,18.4759797 25.73398,18.650508 C24.9486026,18.6149492 24.1672248,18.5978955 23.3913011,18.5978955 L21.0220794,18.5978955 L18.6394045,18.5978955 C17.8540271,18.5978955 17.0599233,18.6149492 16.2570932,18.650508 C16.3094517,17.5354862 16.3578105,16.4255443 16.401079,15.3192308 C16.4443475,14.2132801 16.4668907,13.0859216 16.4668907,11.9364296 L16.4668907,7.44259797 C16.4668907,6.29310595 16.4443475,5.16103048 16.401079,4.04637155" id="Fill-3" fill="#000000"></path>
                <path d="M29.7527486,4.04637155 C29.7087529,2.93207547 29.6611213,1.8170537 29.6087628,0.702394775 C30.3941401,0.737590711 31.1747907,0.767706821 31.9514416,0.79383164 C32.7280926,0.819956459 33.5094703,0.833018868 34.2948477,0.833018868 C35.0798614,0.833018868 35.8565124,0.819956459 36.6244369,0.79383164 C37.392725,0.767706821 38.1690124,0.737590711 38.9547533,0.702394775 C38.9023949,0.963642961 38.8762156,1.22489115 38.8762156,1.48613933 C38.8762156,1.74738752 38.9023949,2.0086357 38.9547533,2.26988389 C38.3958992,2.2350508 37.8854039,2.20058055 37.4232675,2.16538462 C36.9604039,2.13055152 36.4717246,2.09608128 35.9568662,2.06088534 C35.4416441,2.02641509 34.8795175,1.99557329 34.2686684,1.96944848 C33.6570922,1.94332366 32.9244369,1.93026125 32.0692482,1.93026125 C32.0517954,2.48795356 32.030343,3.01879536 32.0038001,3.52387518 C31.9776209,4.02931785 31.9648949,4.60406386 31.9648949,5.24811321 C31.9648949,5.92735849 31.9688945,6.58955007 31.9776209,7.23359942 C31.9863473,7.87837446 31.9910741,8.36603774 31.9910741,8.69658926 C32.7589986,8.69658926 33.4476582,8.68788099 34.0592345,8.67046444 C34.6697199,8.65341074 35.2282105,8.63127721 35.7343426,8.60515239 C36.2408382,8.57902758 36.7073379,8.55290276 37.1352958,8.52677794 C37.5625265,8.50065312 37.9686684,8.47053701 38.3522671,8.43534107 C38.3002722,8.69658926 38.274093,8.96690856 38.274093,9.24557329 C38.274093,9.50609579 38.3002722,9.76770682 38.3522671,10.028955 C37.8981299,9.97670537 37.3705454,9.93352685 36.7684228,9.89796807 C36.1666637,9.86349782 35.5641775,9.84208999 34.9624184,9.83301887 C34.3602958,9.8243106 33.7927152,9.81596517 33.2604039,9.8065312 C32.7280926,9.79818578 32.305225,9.79383164 31.9910741,9.79383164 C31.9910741,9.95058055 31.9863473,10.1207547 31.9776209,10.3036284 C31.9688945,10.4865022 31.9648949,10.7172714 31.9648949,10.9955733 L31.9648949,12.0140784 L31.9648949,13.5819303 C31.9648949,14.5746734 31.9688945,15.3936139 31.9776209,16.0373004 C31.9863473,16.6824383 31.9998005,17.1697388 32.0172533,17.501016 L33.8498005,17.501016 C34.5130081,17.501016 35.1627624,17.4872279 35.7997907,17.4614659 C36.436819,17.4353411 37.0389416,17.400508 37.6065222,17.3569666 C38.173012,17.3137881 38.6667816,17.2484761 39.0856496,17.1610305 C39.0500167,17.2833091 39.0289279,17.4179245 39.0198379,17.5659652 C39.0111114,17.7140058 39.0067482,17.8493469 39.0067482,17.970537 C39.0067482,18.2499274 39.0329275,18.4759797 39.0856496,18.650508 C38.3002722,18.6149492 37.5188945,18.5978955 36.7426071,18.5978955 L34.3730218,18.5978955 L31.9910741,18.5978955 C31.2056967,18.5978955 30.4112294,18.6149492 29.6087628,18.650508 C29.6611213,17.5354862 29.7087529,16.4255443 29.7527486,15.3192308 C29.7960171,14.2132801 29.8181967,13.0859216 29.8181967,11.9364296 L29.8181967,7.44259797 C29.8181967,6.29310595 29.7960171,5.16103048 29.7527486,4.04637155" id="Fill-5" fill="#000000"></path>
                <path d="M47.1750364,9.63733672 C47.7153469,9.63733672 48.2742011,9.57637881 48.8501445,9.45410015 C49.4260879,9.33254717 49.954036,9.11048621 50.4343524,8.78791727 C50.9139416,8.46571118 51.3066303,8.0219521 51.6120548,7.45555152 C51.9174794,6.88987663 52.0705552,6.162373 52.0705552,5.27412917 C52.0705552,4.52558055 51.9658382,3.91563861 51.7564043,3.44575472 C51.5466067,2.97514514 51.2542718,2.60939768 50.8793996,2.34814949 C50.5034365,2.08690131 50.0456633,1.90874456 49.5049892,1.81295356 C48.9639515,1.71716255 48.3531024,1.66926705 47.6720784,1.66926705 L45.3163099,1.66926705 L45.3163099,9.42833817 C45.9097062,9.56803338 46.528918,9.63733672 47.1750364,9.63733672 M43.1041637,4.08544993 C43.0605316,2.97986212 43.0125364,1.85177794 42.9601779,0.702285922 C43.3790458,0.737481858 43.8019133,0.767597968 44.2298713,0.793722787 C44.657102,0.819847605 45.0806967,0.832910015 45.4995647,0.832910015 C45.7089986,0.832910015 45.9617011,0.824564586 46.2583992,0.806785196 C46.5550973,0.789731495 46.8561586,0.776669086 47.1619467,0.767597968 C47.4670077,0.75925254 47.7593426,0.746190131 48.0389515,0.72841074 C48.3178331,0.711357039 48.5534463,0.702285922 48.7457911,0.702285922 C49.0072199,0.702285922 49.3304609,0.711357039 49.7144232,0.72841074 C50.0980218,0.746190131 50.5034365,0.798439768 50.9317581,0.885159652 C51.3593524,0.972605225 51.7825835,1.10322932 52.2014515,1.27703193 C52.6203194,1.45119739 52.9999184,1.70410015 53.339885,2.03465167 C53.6805788,2.36556604 53.9554609,2.779209 54.1648949,3.27558055 C54.3743288,3.7719521 54.4790458,4.38588534 54.4790458,5.11738026 C54.4790458,6.26687228 54.230343,7.19902032 53.7325737,7.91273585 C53.2355316,8.62717707 52.6239554,9.18450653 51.9003901,9.58472424 C51.1760977,9.98566763 50.4081732,10.2552612 49.5966165,10.3949565 C48.7850599,10.5346517 48.0647671,10.6035922 47.4368288,10.6035922 C47.0350501,10.6035922 46.6685407,10.5996009 46.3369369,10.5905298 C46.0053331,10.5821843 45.6653665,10.5604136 45.3163099,10.5252177 L45.3163099,11.9620827 C45.3163099,13.1115747 45.3377624,14.2440131 45.3817581,15.358672 C45.4253901,16.4733309 45.4733854,17.5702104 45.5257439,18.6503991 C45.1239652,18.6148403 44.6967345,18.5977866 44.2429609,18.5977866 C43.7888237,18.5977866 43.361593,18.6148403 42.9601779,18.6503991 C43.0125364,17.5702104 43.0605316,16.4733309 43.1041637,15.358672 C43.1474322,14.2440131 43.1696118,13.1115747 43.1696118,11.9620827 L43.1696118,7.46861393 C43.1696118,6.31912192 43.1474322,5.19176343 43.1041637,4.08544993" id="Fill-7" fill="#000000"></path>
                <path d="M65.4612392,4.0855225 C65.4176071,2.97993469 65.3696118,1.85185051 65.3172533,0.702358491 C65.5441401,0.737554427 65.7623005,0.767670537 65.9713709,0.793795356 C66.1808048,0.819920174 66.3906024,0.832982583 66.6000364,0.832982583 C66.8094703,0.832982583 67.0189043,0.819920174 67.2283382,0.793795356 C67.4381358,0.767670537 67.6559326,0.737554427 67.8828194,0.702358491 C67.8308245,1.85185051 67.7824656,2.97993469 67.7391971,4.0855225 C67.6952015,5.19183599 67.6733854,6.31919448 67.6733854,7.4686865 C67.6733854,9.66317126 67.6817482,11.5662917 67.6995647,13.1773222 C67.7166539,14.7879898 67.7341067,16.2295718 67.7519232,17.5009797 C68.9910741,17.5009797 70.1778665,17.4875544 71.3123005,17.4614296 C72.4467345,17.4353048 73.6684326,17.3355225 74.9773949,17.1609942 C74.8897671,17.474492 74.8464986,17.7357402 74.8464986,17.9447388 C74.8464986,18.1366836 74.8897671,18.371807 74.9773949,18.6504717 C74.1745647,18.6149129 73.3713709,18.5978592 72.5689043,18.5978592 L70.1604137,18.5978592 L67.7391971,18.5978592 C66.9621826,18.5978592 66.1549892,18.6149129 65.3172533,18.6504717 C65.3696118,17.570283 65.4176071,16.4734035 65.4612392,15.3583817 C65.5045077,14.2440856 65.5270509,13.1116473 65.5270509,11.9621553 L65.5270509,7.4686865 C65.5270509,6.31919448 65.5045077,5.19183599 65.4612392,4.0855225" id="Fill-9" fill="#000000"></path>
                <g id="Group-13" transform="translate(77.083333, 0.121880)">
                    <mask id="mask-2" fill="white">
                        <use xlink:href="#path-1"></use>
                    </mask>
                    <g id="Clip-12"></g>
                    <path d="M16.5597907,5.84466618 C16.1932812,4.79096517 15.6831496,3.92050073 15.0283048,3.23218433 C14.3738237,2.54423077 13.6058992,2.03479681 12.7245312,1.70388244 C11.8431633,1.37333091 10.8872573,1.20751089 9.85790389,1.20751089 C8.84563974,1.20751089 7.8988237,1.37333091 7.01781938,1.70388244 C6.13608785,2.03479681 5.36816333,2.54423077 4.71404579,3.23218433 C4.05920106,3.92050073 3.54870578,4.79096517 3.18219634,5.84466618 C2.81568691,6.89873004 2.63243219,8.14800435 2.63243219,9.59357765 C2.63243219,11.0395138 2.81568691,12.2887881 3.18219634,13.3424891 C3.54870578,14.396553 4.05920106,15.2670174 4.71404579,15.954971 C5.36816333,16.6432874 6.13608785,17.1527213 7.01781938,17.4832729 C7.8988237,17.8141872 8.84563974,17.9796444 9.85790389,17.9796444 C10.8872573,17.9796444 11.8431633,17.8141872 12.7245312,17.4832729 C13.6058992,17.1527213 14.3738237,16.6432874 15.0283048,15.954971 C15.6831496,15.2670174 16.1932812,14.396553 16.5597907,13.3424891 C16.9266637,12.2887881 17.1099184,11.0395138 17.1099184,9.59357765 C17.1099184,8.14800435 16.9266637,6.89873004 16.5597907,5.84466618 M0.786795401,5.63566763 C1.26674823,4.47746734 1.93868219,3.49778665 2.80259729,2.69662554 C3.66651238,1.89582729 4.70059257,1.28588534 5.90483785,0.867888244 C7.10944674,0.449891147 8.42677182,0.240892598 9.85790389,0.240892598 C11.3064888,0.240892598 12.6329039,0.449891147 13.8375128,0.867888244 C15.0413945,1.28588534 16.0754746,1.89582729 16.9393897,2.69662554 C17.8036684,3.49778665 18.4752388,4.47746734 18.9555552,5.63566763 C19.4347809,6.79423077 19.6751209,8.11353411 19.6751209,9.59357765 C19.6751209,11.0743469 19.4347809,12.3932874 18.9555552,13.5514877 C18.4752388,14.7100508 17.8036684,15.6893687 16.9393897,16.4901669 C16.0754746,17.2916909 15.0413945,17.8882075 13.8375128,18.2800798 C12.6329039,18.6719521 11.3064888,18.8678882 9.85790389,18.8678882 C8.42677182,18.8678882 7.10944674,18.6719521 5.90483785,18.2800798 C4.70059257,17.8882075 3.66651238,17.2916909 2.80259729,16.4901669 C1.93868219,15.6893687 1.26674823,14.7100508 0.786795401,13.5514877 C0.306842571,12.3932874 0.0668661557,11.0743469 0.0668661557,9.59357765 C0.0668661557,8.11353411 0.306842571,6.79423077 0.786795401,5.63566763" id="Fill-11" fill="#000000" mask="url(#mask-2)"></path>
                </g>
                <g id="Group-16" transform="translate(99.626572, 0.121880)">
                    <mask id="mask-4" fill="white">
                        <use xlink:href="#path-3"></use>
                    </mask>
                    <g id="Clip-15"></g>
                    <path d="M16.7398457,5.84466618 C16.3733363,4.79096517 15.8632046,3.92050073 15.2087235,3.23218433 C14.5538787,2.54423077 13.7859542,2.03479681 12.9049499,1.70388244 C12.0232184,1.37333091 11.0676759,1.20751089 10.0379589,1.20751089 C9.02569477,1.20751089 8.07887873,1.37333091 7.19787441,1.70388244 C6.31614289,2.03479681 5.54858196,2.54423077 4.89410083,3.23218433 C4.23961969,3.92050073 3.72912441,4.79096517 3.36261498,5.84466618 C2.99610554,6.89873004 2.81285083,8.14800435 2.81285083,9.59357765 C2.81285083,11.0395138 2.99610554,12.2887881 3.36261498,13.3424891 C3.72912441,14.396553 4.23961969,15.2670174 4.89410083,15.954971 C5.54858196,16.6432874 6.31614289,17.1527213 7.19787441,17.4832729 C8.07887873,17.8141872 9.02569477,17.9796444 10.0379589,17.9796444 C11.0676759,17.9796444 12.0232184,17.8141872 12.9049499,17.4832729 C13.7859542,17.1527213 14.5538787,16.6432874 15.2087235,15.954971 C15.8632046,15.2670174 16.3733363,14.396553 16.7398457,13.3424891 C17.1067188,12.2887881 17.2899735,11.0395138 17.2899735,9.59357765 C17.2899735,8.14800435 17.1067188,6.89873004 16.7398457,5.84466618 M0.967214033,5.63566763 C1.44680326,4.47746734 2.11910083,3.49778665 2.98265232,2.69662554 C3.84693101,1.89582729 4.8810112,1.28588534 6.08525649,0.867888244 C7.28950177,0.449891147 8.60719045,0.240892598 10.0379589,0.240892598 C11.4869074,0.240892598 12.8133225,0.449891147 14.0175678,0.867888244 C15.2214495,1.28588534 16.2555297,1.89582729 17.1198084,2.69662554 C17.9837235,3.49778665 18.6552938,4.47746734 19.1356103,5.63566763 C19.6151995,6.79423077 19.8551759,8.11353411 19.8551759,9.59357765 C19.8551759,11.0743469 19.6151995,12.3932874 19.1356103,13.5514877 C18.6552938,14.7100508 17.9837235,15.6893687 17.1198084,16.4901669 C16.2555297,17.2916909 15.2214495,17.8882075 14.0175678,18.2800798 C12.8133225,18.6719521 11.4869074,18.8678882 10.0379589,18.8678882 C8.60719045,18.8678882 7.28950177,18.6719521 6.08525649,18.2800798 C4.8810112,17.8882075 3.84693101,17.2916909 2.98265232,16.4901669 C2.11910083,15.6893687 1.44680326,14.7100508 0.967214033,13.5514877 C0.486897602,12.3932874 0.247284788,11.0743469 0.247284788,9.59357765 C0.247284788,8.11353411 0.486897602,6.79423077 0.967214033,5.63566763" id="Fill-14" fill="#000000" mask="url(#mask-4)"></path>
                </g>
                <path d="M123.343005,15.3585269 C123.386274,14.2442308 123.408817,13.1117925 123.408817,11.9623004 L123.408817,7.46883164 C123.408817,6.31933962 123.386274,5.19161829 123.343005,4.08566763 C123.299737,2.97971698 123.251378,1.85199565 123.199019,0.702503628 C123.425906,0.737699565 123.644066,0.767815675 123.8535,0.793940493 C124.062934,0.820065312 124.272732,0.833127721 124.482166,0.833127721 C124.6916,0.833127721 124.901034,0.820065312 125.110104,0.793940493 C125.319902,0.767815675 125.537699,0.737699565 125.764585,0.702503628 C125.71259,1.85199565 125.664232,2.97971698 125.620963,4.08566763 C125.577331,5.19161829 125.555151,6.31933962 125.555151,7.46883164 L125.555151,8.90569666 C125.555151,9.04539187 125.607873,9.11433237 125.71259,9.11433237 C125.781675,9.11433237 125.904208,9.03632075 126.078736,8.87957184 C126.689585,8.35707547 127.33134,7.76491292 128.002911,7.10308418 C128.674845,6.44125544 129.351142,5.75330189 130.031802,5.03922351 C130.712826,4.32514514 131.384033,3.59800435 132.047604,2.85780116 C132.710812,2.11759797 133.34784,1.39916546 133.958689,0.702503628 C134.151034,0.737699565 134.334289,0.767815675 134.508817,0.793940493 C134.682618,0.820065312 134.85751,0.833127721 135.032038,0.833127721 C135.241836,0.833127721 135.45127,0.820065312 135.660704,0.793940493 C135.870138,0.767815675 136.079208,0.737699565 136.288642,0.702503628 C135.677793,1.225 134.988406,1.84328737 134.220482,2.55736575 C133.452557,3.27144412 132.680269,4.00330189 131.903982,4.75185051 C131.126967,5.50076197 130.385586,6.23661103 129.678382,6.95939768 C128.971543,7.68218433 128.38251,8.31353411 127.911283,8.85344702 C129.325326,10.4379898 130.752095,12.0537373 132.19159,13.6996009 C133.631812,15.3454644 135.093123,16.9956821 136.576614,18.650254 C136.314821,18.6150581 136.053392,18.5980044 135.791236,18.5980044 L135.005859,18.5980044 L134.286293,18.5980044 C134.05068,18.5980044 133.81034,18.6150581 133.566364,18.650254 C132.938062,17.9361756 132.243949,17.1179608 131.485114,16.194521 C130.725916,15.2714441 129.983807,14.3788462 129.259515,13.5167271 C128.535222,12.6546081 127.880741,11.8795718 127.296435,11.1916183 C126.711401,10.5036647 126.279444,10.0203556 126.000562,9.74169086 C125.860576,9.60272134 125.755859,9.53232946 125.686048,9.53232946 C125.59842,9.53232946 125.555151,9.58494194 125.555151,9.68944122 L125.555151,11.9623004 C125.555151,13.1117925 125.577331,14.2442308 125.620963,15.3585269 C125.664232,16.4731858 125.71259,17.5704282 125.764585,18.650254 C125.36317,18.6150581 124.935939,18.5980044 124.482166,18.5980044 C124.028029,18.5980044 123.600434,18.6150581 123.199019,18.650254 C123.251378,17.5704282 123.299737,16.4731858 123.343005,15.3585269" id="Fill-17" fill="#000000"></path>
                <path d="M140.254688,4.0855225 C140.21142,2.97993469 140.163061,1.85185051 140.110703,0.702358491 C140.337589,0.737554427 140.55575,0.767670537 140.765184,0.793795356 C140.974618,0.819920174 141.184415,0.832982583 141.393849,0.832982583 C141.603283,0.832982583 141.812717,0.819920174 142.021788,0.793795356 C142.231585,0.767670537 142.449382,0.737554427 142.676269,0.702358491 C142.624274,1.85185051 142.575915,2.97993469 142.532646,4.0855225 C142.489014,5.19183599 142.466835,6.31919448 142.466835,7.4686865 L142.466835,11.9621553 C142.466835,13.1116473 142.489014,14.2440856 142.532646,15.3583817 C142.575915,16.4734035 142.624274,17.570283 142.676269,18.6504717 C142.274854,18.6149129 141.847623,18.5978592 141.393849,18.5978592 C140.939712,18.5978592 140.512118,18.6149129 140.110703,18.6504717 C140.163061,17.570283 140.21142,16.4734035 140.254688,15.3583817 C140.297957,14.2440856 140.3205,13.1116473 140.3205,11.9621553 L140.3205,7.4686865 C140.3205,6.31919448 140.297957,5.19183599 140.254688,4.0855225" id="Fill-19" fill="#000000"></path>
                <g id="Group-23" transform="translate(147.621855, 0.121880)">
                    <mask id="mask-6" fill="white">
                        <use xlink:href="#path-5"></use>
                    </mask>
                    <g id="Clip-22"></g>
                    <path d="M8.56308569,11.7488752 C6.29421777,9.31926705 4.02534984,6.90272134 1.75648192,4.49923803 C1.73902909,4.98690131 1.72157626,5.64038462 1.70448703,6.45859942 C1.6866706,7.27753991 1.67794418,8.39183599 1.67794418,9.8025762 C1.67794418,10.1683237 1.68230739,10.6215167 1.69103381,11.1610668 C1.69976022,11.7009797 1.70812303,12.2673803 1.71721305,12.85918 C1.72557586,13.4513425 1.73902909,14.0525762 1.75648192,14.6617925 C1.77393475,15.2717344 1.79138758,15.8377721 1.80884041,16.3599057 C1.82629324,16.8820392 1.84374607,17.3395864 1.8611989,17.7314586 C1.87828813,18.1229681 1.89610456,18.3889332 1.91392099,18.5286284 C1.63394851,18.4930697 1.32888758,18.476016 0.997283805,18.476016 C0.647863601,18.476016 0.325349843,18.4930697 0.0286517296,18.5286284 C0.0635573899,18.3541001 0.102826258,18.0315312 0.146821934,17.5620102 C0.190090409,17.0914006 0.229359277,16.5300798 0.264264937,15.8765965 C0.298806997,15.2234761 0.338439465,14.5137518 0.382071541,13.7474238 C0.425340016,12.9810958 0.460972877,12.2147678 0.487152123,11.4484398 C0.512967767,10.6824746 0.534783805,9.93320029 0.552600236,9.20134253 C0.569689465,8.47021045 0.578779481,7.81708999 0.578779481,7.24234398 C0.578779481,5.57035559 0.573689072,4.13349057 0.565326258,2.93174891 C0.556236242,1.73000726 0.534783805,0.833417997 0.499878145,0.240892598 L0.91910967,0.240892598 C1.98336871,1.39038462 3.12180228,2.62296807 4.33550118,3.93755443 C5.54774568,5.25286647 6.75235456,6.55003628 7.94823703,7.83015239 C9.1433923,9.11026851 10.2781899,10.3210813 11.3511753,11.4615022 C12.424888,12.6026488 13.3622504,13.5732583 14.1654442,14.3740566 L14.1654442,10.8214441 C14.1654442,8.99234398 14.1527182,7.21222787 14.1265389,5.47891872 C14.1003597,3.74597242 14.0432744,2.11317126 13.9560102,0.580515239 C14.3047032,0.667960813 14.6014013,0.711139332 14.8464682,0.711139332 C15.0551749,0.711139332 15.3344202,0.667960813 15.6838404,0.580515239 C15.6489347,0.963679245 15.6093023,1.53842525 15.5660338,2.30475327 C15.5227653,3.07144412 15.4787697,3.88965893 15.4351376,4.76048621 C15.3911419,5.63167634 15.3522366,6.48472424 15.317331,7.32071843 C15.2824253,8.15671263 15.2649725,8.82724964 15.2649725,9.33232946 L15.2649725,10.8998186 C15.2649725,11.4919811 15.2689721,12.1106313 15.2784257,12.7546807 C15.2867885,13.3990929 15.2955149,14.0478592 15.304605,14.7009797 C15.3129678,15.354463 15.3216942,15.9636792 15.3307842,16.5300798 C15.3395106,17.0957547 15.3435102,17.5877721 15.3435102,18.0057692 L15.3435102,18.8678882 L14.9773644,18.8678882 C12.9695617,16.5518505 10.8319536,14.1784833 8.56308569,11.7488752" id="Fill-21" fill="#000000" mask="url(#mask-6)"></path>
                </g>
                <g id="Group-26" transform="translate(166.529088, 0.121880)">
                    <mask id="mask-8" fill="white">
                        <use xlink:href="#path-7"></use>
                    </mask>
                    <g id="Clip-25"></g>
                    <path d="M15.3248575,2.82728592 C14.9321688,2.5137881 14.4958481,2.2394775 14.0155316,2.00435414 C13.5355788,1.76923077 13.0032675,1.57764877 12.4189613,1.42960813 C11.8339279,1.28193033 11.2103528,1.20754717 10.5467816,1.20754717 C9.46470617,1.20754717 8.45680523,1.3733672 7.52344241,1.70391872 C6.589716,2.03483309 5.77779579,2.54426705 5.0887726,3.23222061 C4.39902221,3.92053701 3.85834807,4.79100145 3.46565939,5.84470247 C3.07297072,6.89876633 2.87662638,8.14804064 2.87662638,9.59325109 C2.87662638,10.8650218 3.05079108,12.0145138 3.40021128,13.0417271 C3.74890428,14.070029 4.25939957,14.9361393 4.93169713,15.6411466 C5.60326749,16.3468795 6.42391411,16.8915094 7.39254619,17.2739478 C8.36117826,17.6574746 9.45597976,17.8486938 10.6780415,17.8486938 C11.0445509,17.8486938 11.4281496,17.8320029 11.8299283,17.796807 C12.2309798,17.7619739 12.6193052,17.7100871 12.9949047,17.6396952 C13.3697769,17.5707547 13.7188335,17.4833091 14.0420745,17.3788099 C14.3645882,17.2739478 14.6394703,17.1523948 14.8663571,17.0130624 C14.8838099,16.4902032 14.8968996,15.9680697 14.9059896,15.4455733 C14.9143524,14.9230769 14.9190792,14.3918723 14.9190792,13.8519594 C14.9190792,13.2423803 14.9059896,12.6328012 14.8794467,12.0232221 C14.8536311,11.413643 14.822725,10.8305515 14.7878194,10.2732221 C15.2241401,10.3603048 15.6430081,10.4034833 16.0444232,10.4034833 C16.2364043,10.4034833 16.4283854,10.394775 16.6203665,10.3773585 C16.8127113,10.3603048 16.995966,10.3251089 17.1704943,10.2732221 C17.135225,10.6734398 17.1090458,11.3047896 17.091593,12.1665457 C17.0745037,13.0290276 17.0657773,14.1654572 17.0657773,15.5761974 C17.0657773,15.9248911 17.0697769,16.2775762 17.0785033,16.6342525 C17.0875934,16.9912917 17.091593,17.3443396 17.091593,17.6923077 C16.7254471,17.8320029 16.2673103,17.9756894 15.7175462,18.1230044 C15.1674184,18.2714078 14.5827486,18.3936865 13.9635368,18.4891147 C13.3439613,18.5845428 12.7240222,18.6719884 12.1048103,18.7503628 C11.4848713,18.8291001 10.9223811,18.8679245 10.416249,18.8679245 C8.86258353,18.8679245 7.46199391,18.6803338 6.21411655,18.3062409 C4.96660279,17.9317852 3.90634336,17.3526851 3.03333825,16.5689405 C2.16069674,15.7851959 1.48876278,14.8098694 1.01753636,13.6429608 C0.546309945,12.4764151 0.311060338,11.12627 0.311060338,9.59325109 C0.311060338,8.11357039 0.55503636,6.79426705 1.04407921,5.63570392 C1.53239485,4.47750363 2.22214524,3.49782293 3.11223958,2.69666183 C4.00197032,1.89586357 5.07968259,1.28592163 6.34537638,0.867924528 C7.61034296,0.449927431 9.01129619,0.240928882 10.5467816,0.240928882 C11.4372396,0.240928882 12.2266165,0.289187228 12.9163669,0.384615385 C13.6053901,0.480406386 14.2162392,0.606676343 14.7489141,0.763425254 C15.2808618,0.920174165 15.747725,1.08599419 16.1495037,1.25979681 C16.5505552,1.43396226 16.9083382,1.59941945 17.2228528,1.75616836 C17.0828665,2.00036284 16.9563335,2.31349782 16.8432537,2.69666183 C16.7294467,3.07982583 16.6552722,3.43722787 16.6203665,3.76777939 L16.3062156,3.76777939 C16.0444232,3.45428157 15.7175462,3.14078374 15.3248575,2.82728592" id="Fill-24" fill="#000000" mask="url(#mask-8)"></path>
                </g>
            </g>
        </g>
    </g>
</svg>