<svg id="Layer_1" data-name="Layer 1" xmlns="http://www.w3.org/2000/svg" viewBox="0 0 505.4 51.3"><defs><style>.cls-1{fill:#fff;}</style></defs><title>logo_kl_final</title><path class="cls-1" d="M147.7,315.7q0.2-4.6.2-9.4V293.9q0-4.8-.2-9.3t-0.4-9.3l1.8,0.3h3.5l1.8-.3q-0.2,4.8-.4,9.3t-0.2,9.3v4c0,0.4.1,0.6,0.4,0.6a2.1,2.1,0,0,0,1-.6q2.5-2.2,5.3-4.9l5.6-5.7,5.5-6,5.3-5.9,1.5,0.3h3.2l1.7-.3-5.7,5.1-6.4,6-6.1,6.1-4.9,5.2L172,311.1l12.1,13.6h-8.3l-5.7-6.8-6.1-7.4-5.4-6.4-3.6-4a1.6,1.6,0,0,0-.9-0.6,0.4,0.4,0,0,0-.4.4v6.3q0,4.8.2,9.4t0.4,9.1h-7.1Q147.5,320.3,147.7,315.7Z" transform="translate(-147.3 -274.3)"/><path class="cls-1" d="M192.4,284.5q-0.2-4.6-.4-9.2l6.4,0.3h12.9l6.4-.3a10.9,10.9,0,0,0,0,4.3l-4.2-.3-4-.3-4.6-.3h-6q-0.1,2.3-.2,4.4t-0.1,4.8q0,2.8,0,5.5t0,4h5.7l4.6-.2,3.9-.2,3.3-.3a11.4,11.4,0,0,0-.2,2.2,11,11,0,0,0,.2,2.2l-4.4-.4-5-.2h-8.2q0,0.6,0,1.4t0,1.9v7.1q0,4.1,0,6.8t0.1,4h10.4l5-.3,4.1-.5a5.1,5.1,0,0,0-.2,1.1c0,0.4,0,.8,0,1.1a6.7,6.7,0,0,0,.2,1.9H192q0.2-4.6.4-9.2t0.2-9.3V293.8Q192.6,289.1,192.4,284.5Z" transform="translate(-147.3 -274.3)"/><path class="cls-1" d="M229.1,284.5q-0.2-4.6-.4-9.2l6.4,0.3H248l6.4-.3a10.9,10.9,0,0,0,0,4.3l-4.2-.3-4-.3-4.6-.3h-6q-0.1,2.3-.2,4.4t-0.1,4.8q0,2.8,0,5.5t0,4H241l4.6-.2,3.9-.2,3.3-.3a11.4,11.4,0,0,0-.2,2.2,11,11,0,0,0,.2,2.2l-4.4-.4-5-.2h-8.2q0,0.6,0,1.4t0,1.9v7.1q0,4.1,0,6.8t0.1,4h10.4l5-.3,4.1-.5a5.1,5.1,0,0,0-.2,1.1c0,0.4,0,.8,0,1.1a6.7,6.7,0,0,0,.2,1.9H228.7q0.2-4.6.4-9.2t0.2-9.3V293.8Q229.3,289.1,229.1,284.5Z" transform="translate(-147.3 -274.3)"/><path class="cls-1" d="M265.9,284.6q-0.2-4.6-.4-9.3l3.5,0.3H284l3.3,0.4a19,19,0,0,1,3.5,1.1,10,10,0,0,1,3.1,2.1,10.3,10.3,0,0,1,2.3,3.4,15.4,15.4,0,0,1-1.2,12.8,14.9,14.9,0,0,1-5,4.6,20,20,0,0,1-6.3,2.2,35.4,35.4,0,0,1-5.9.6h-3l-2.8-.2v4q0,4.8.2,9.4t0.4,9.1h-7.1q0.2-4.5.4-9.1t0.2-9.4V293.9Q266,289.2,265.9,284.6Zm11.2,15.3a22.1,22.1,0,0,0,4.6-.5,12.3,12.3,0,0,0,4.4-1.8,10.1,10.1,0,0,0,3.2-3.7,15,15,0,0,0,.4-11.1,7.1,7.1,0,0,0-2.4-3,9.4,9.4,0,0,0-3.8-1.5,29.1,29.1,0,0,0-5-.4h-6.5v21.4A22.2,22.2,0,0,0,277.1,299.9Z" transform="translate(-147.3 -274.3)"/><path class="cls-1" d="M327.4,284.6q-0.2-4.6-.4-9.3l1.8,0.3h3.5l1.8-.3q-0.2,4.8-.4,9.3t-0.2,9.3q0,9.1.1,15.7t0.1,11.9h9.8a92.7,92.7,0,0,0,10.1-.8,8.3,8.3,0,0,0-.4,2.2,6.7,6.7,0,0,0,.4,1.9H327q0.2-4.5.4-9.1t0.2-9.4V293.9Q327.5,289.2,327.4,284.6Z" transform="translate(-147.3 -274.3)"/><path class="cls-1" d="M361.5,289.2a22.8,22.8,0,0,1,5.5-8.1,23.9,23.9,0,0,1,8.5-5,35.3,35.3,0,0,1,21.8,0,23.9,23.9,0,0,1,8.5,5,22.8,22.8,0,0,1,5.5,8.1,31,31,0,0,1,0,21.8,22.2,22.2,0,0,1-14.1,13,37.5,37.5,0,0,1-21.8,0,22.2,22.2,0,0,1-14.1-13A31,31,0,0,1,361.5,289.2Zm43.4,0.6a19.6,19.6,0,0,0-4.2-7.2,16.8,16.8,0,0,0-6.3-4.2,23.2,23.2,0,0,0-15.7,0,16.8,16.8,0,0,0-6.3,4.2,19.6,19.6,0,0,0-4.2,7.2,36.1,36.1,0,0,0,0,20.7,19.6,19.6,0,0,0,4.2,7.2,16.8,16.8,0,0,0,6.3,4.2,23.2,23.2,0,0,0,15.7,0,16.8,16.8,0,0,0,6.3-4.2,19.6,19.6,0,0,0,4.2-7.2A36,36,0,0,0,404.9,289.8Z" transform="translate(-147.3 -274.3)"/><path class="cls-1" d="M424,289.2a22.8,22.8,0,0,1,5.5-8.1,23.9,23.9,0,0,1,8.5-5,35.3,35.3,0,0,1,21.8,0,23.9,23.9,0,0,1,8.5,5,22.8,22.8,0,0,1,5.5,8.1,31,31,0,0,1,0,21.8,22.2,22.2,0,0,1-14.1,13,37.5,37.5,0,0,1-21.8,0A22.2,22.2,0,0,1,424,311,31,31,0,0,1,424,289.2Zm43.4,0.6a19.6,19.6,0,0,0-4.2-7.2,16.8,16.8,0,0,0-6.3-4.2,22.2,22.2,0,0,0-7.9-1.4,22,22,0,0,0-7.8,1.4,16.8,16.8,0,0,0-6.3,4.2,19.6,19.6,0,0,0-4.2,7.2,36.1,36.1,0,0,0,0,20.7,19.6,19.6,0,0,0,4.2,7.2,16.7,16.7,0,0,0,6.3,4.2,22,22,0,0,0,7.8,1.4,22.2,22.2,0,0,0,7.9-1.4,16.8,16.8,0,0,0,6.3-4.2,19.6,19.6,0,0,0,4.2-7.2A36,36,0,0,0,467.4,289.8Z" transform="translate(-147.3 -274.3)"/><path class="cls-1" d="M486.5,315.7q0.2-4.6.2-9.4V293.9q0-4.8-.2-9.3t-0.4-9.3l1.8,0.3h3.5l1.8-.3q-0.2,4.8-.4,9.3t-0.2,9.3v4c0,0.4.1,0.6,0.4,0.6a2.1,2.1,0,0,0,1-.6q2.5-2.2,5.3-4.9l5.6-5.7,5.5-6,5.3-5.9,1.5,0.3h3.2l1.7-.3-5.7,5.1-6.4,6-6.1,6.1-4.9,5.2,11.8,13.4,12.1,13.6h-8.3l-5.7-6.8-6.1-7.4-5.4-6.4-3.6-4a1.6,1.6,0,0,0-.9-0.6,0.4,0.4,0,0,0-.4.4v6.3q0,4.8.2,9.4t0.4,9.1h-7.1Q486.4,320.3,486.5,315.7Z" transform="translate(-147.3 -274.3)"/><path class="cls-1" d="M533.1,284.6q-0.2-4.6-.4-9.3l1.8,0.3h3.5l1.8-.3q-0.2,4.8-.4,9.3t-0.2,9.3v12.4q0,4.8.2,9.4t0.4,9.1h-7.1q0.2-4.5.4-9.1t0.2-9.4V293.9Q533.2,289.2,533.1,284.6Z" transform="translate(-147.3 -274.3)"/><path class="cls-1" d="M576.9,306l-18.7-20q-0.1,2-.1,5.4t-0.1,9.2q0,1.5,0,3.7v4.7q0,2.4.1,5t0.1,4.7q0.1,2.2.1,3.8t0.1,2.2h-5.2q0.1-.7.3-2.7t0.3-4.6l0.3-5.9q0.2-3.2.3-6.3t0.2-6.2q0.1-3,.1-5.4,0-6.9,0-11.9t-0.2-7.4h1.2l9.4,10.2,9.9,10.7,9.4,10,7.7,8v-9.8q0-7.6-.1-14.7t-0.5-13.5l2.4,0.4,2.3-.4q-0.1,1.6-.3,4.8t-0.4,6.8q-0.2,3.6-.3,7.1t-0.1,5.5v4.3q0,2.4,0,5.1v5.4q0,2.7.1,5t0,4.1v2.4h-1Q586.2,316.1,576.9,306Z" transform="translate(-147.3 -274.3)"/><path class="cls-1" d="M647.5,281.5a19.5,19.5,0,0,0-3.6-2.3,22.5,22.5,0,0,0-4.4-1.6,20.9,20.9,0,0,0-5.1-.6,24.7,24.7,0,0,0-8.3,1.4,17.7,17.7,0,0,0-6.7,4.2,19.7,19.7,0,0,0-4.5,7.2,32.9,32.9,0,0,0-.2,19.8,19.1,19.1,0,0,0,4.2,7.2,18.7,18.7,0,0,0,6.8,4.5,24.3,24.3,0,0,0,9,1.6h3.2l3.2-.4,2.9-.7a10.6,10.6,0,0,0,2.3-1q0.1-2.2.1-4.3t0-4.4q0-2.5-.1-5T646,302a17.6,17.6,0,0,0,3.5.4H651l1.5-.3q-0.1,1.7-.2,5.2t-0.1,9.4,0,2.9,0,2.9l-3.8,1.2-4.8,1-5.1.7-4.6.3a40.1,40.1,0,0,1-11.6-1.5,22.6,22.6,0,0,1-8.7-4.8,21.4,21.4,0,0,1-5.5-8.1,29.7,29.7,0,0,1-1.9-11.2,27.9,27.9,0,0,1,2-10.9,22.5,22.5,0,0,1,5.7-8.1,24.6,24.6,0,0,1,8.9-5,36.6,36.6,0,0,1,11.6-1.7,47.9,47.9,0,0,1,6.5.4,35,35,0,0,1,5,1l3.9,1.4,3,1.4a12.3,12.3,0,0,0-1,2.6,16.6,16.6,0,0,0-.6,3h-0.9A18.7,18.7,0,0,0,647.5,281.5Z" transform="translate(-147.3 -274.3)"/></svg>