<?xml version="1.0" encoding="UTF-8"?><!DOCTYPE svg PUBLIC "-//W3C//DTD SVG 1.1//EN" "http://www.w3.org/Graphics/SVG/1.1/DTD/svg11.dtd"><svg xmlns="http://www.w3.org/2000/svg" xmlns:xlink="http://www.w3.org/1999/xlink"><defs>
        <path id="a" d="M7.544 14.958V0H0v14.958h7.544z"/>
    
        <path id="a" d="M19.675.24H.067v18.628h19.608V.24z"/>
        <path id="c" d="M19.855.24H.247v18.628h19.608V.24z"/>
        <path id="e" d="M15.684.24H.029v18.628h15.655V.24z"/>
        <path id="g" d="M8.767 18.868h8.456V.24H.31v18.627h8.456z"/>
    </defs><symbol id="ico-arrow" viewBox="0 0 10 5">
    <title>
        arrow
    </title>
    <path d="M.52.52l4.504 3.96L9.52.534" fill-rule="evenodd"/>
</symbol><symbol id="ico-close-mini" viewBox="0 0 5 5">
    <title>
        mini plus
    </title>
    <g stroke-width=".5" fill-rule="evenodd">
        <path d="M4.303.768L.768 4.303"/>
        <path d="M.768.768l3.535 3.535"/>
    </g>
</symbol><symbol id="ico-delete" viewBox="0 0 10 12">
    <title>
        delit
    </title>
    <g fill-rule="evenodd">
        <path d="M9.77 1.332L.244 10.634"/>
        <path d="M.244 1.332l9.526 9.302"/>
    </g>
</symbol><symbol id="ico-facebook" viewBox="0 0 8 15">
    <title>
        facebook
    </title>
    
    <g fill-rule="evenodd">
        <mask id="b">
            <use xlink:href="#a"/>
        </mask>
        <path d="M1.943 8.474v6.46l3.135.024-.012-6.502 1.938-.013.54-2.804h-2.48v-2.07c0-.278.108-.777.546-.777l1.444.024-.05-2.803L4.148 0c-.98 0-2.203 1.294-2.203 2.619L1.92 5.623 0 5.662v2.802l1.943.01z" mask="url(#b)"/>
    </g>
</symbol><symbol id="ico-instagram" viewBox="0 0 12 12">
    <title>
        instagram
    </title>
    <g fill-rule="evenodd">
        <path d="M6 3.561a2.439 2.439 0 1 0 0 4.878 2.44 2.44 0 1 0 0-4.878"/>
        <path d="M9.906 2.972a.879.879 0 1 1 .001-1.758.879.879 0 0 1 0 1.758M6 9.757A3.757 3.757 0 1 1 9.758 6 3.757 3.757 0 0 1 6 9.757m5.957-6.715c-.033-.713-.152-1.1-.252-1.36a2.288 2.288 0 0 0-.547-.84 2.266 2.266 0 0 0-.842-.547c-.258-.1-.645-.22-1.358-.253C8.185.008 7.954 0 6 0 4.046 0 3.814.008 3.043.042c-.713.034-1.1.153-1.36.253a2.26 2.26 0 0 0-.84.547c-.257.256-.415.5-.548.84-.1.26-.22.647-.252 1.36C.008 3.814 0 4.046 0 6c0 1.954.008 2.186.043 2.96.032.712.152 1.1.252 1.357.133.341.291.586.548.842.255.256.5.414.84.547.26.1.647.219 1.36.252.771.035 1.003.042 2.957.042s2.185-.007 2.958-.042c.713-.033 1.1-.152 1.358-.252a2.28 2.28 0 0 0 .842-.547c.255-.256.414-.5.547-.842.1-.257.22-.645.252-1.358C11.992 8.185 12 7.953 12 6c0-1.953-.008-2.185-.043-2.957"/>
    </g>
</symbol><symbol id="ico-like" viewBox="0 0 12 10">
    <title>
        Path 6
    </title>
    <path d="M6 2.25L4.5 1H2.25L1 2.25v2.5l5 5 5-5v-2.5L9.75 1h-2.5z" fill-rule="evenodd"/>
</symbol><symbol id="ico-logo" viewBox="0 0 184 19">
    <title>
        Page 1
    </title>
    
    <g fill-rule="evenodd">
        <path d="M.144 15.359a87.54 87.54 0 0 0 .066-3.397V7.47c0-1.15-.023-2.277-.066-3.383A587.627 587.627 0 0 0 0 .703c.227.035.445.065.654.09a5.076 5.076 0 0 0 1.257 0c.21-.025.427-.055.655-.09-.053 1.149-.101 2.277-.144 3.383a85.139 85.139 0 0 0-.066 3.383v1.437c0 .14.053.208.157.208.07 0 .192-.078.367-.234a37.468 37.468 0 0 0 1.924-1.777 93.414 93.414 0 0 0 4.044-4.245c.664-.74 1.3-1.459 1.911-2.155.192.035.376.065.55.09.175.027.35.04.524.04.21 0 .419-.013.628-.04.21-.025.419-.055.629-.09a67 67 0 0 0-2.068 1.854c-.769.714-1.54 1.446-2.318 2.195A106.01 106.01 0 0 0 6.48 6.959a46.509 46.509 0 0 0-1.768 1.894 673.14 673.14 0 0 1 4.28 4.847c1.44 1.645 2.902 3.296 4.386 4.95a5.893 5.893 0 0 0-.786-.052h-1.505c-.236 0-.476.017-.72.052a97.023 97.023 0 0 1-2.081-2.455c-.76-.924-1.501-1.816-2.226-2.678a540.584 540.584 0 0 0-1.963-2.325c-.585-.688-1.017-1.172-1.296-1.45-.14-.14-.244-.21-.314-.21-.087 0-.13.053-.13.157v2.273c0 1.15.02 2.282.065 3.397.043 1.114.091 2.211.144 3.291a14.74 14.74 0 0 0-1.283-.052c-.454 0-.882.017-1.283.052.053-1.08.1-2.177.144-3.291"/>
        <path d="M16.401 4.046c-.043-1.114-.092-2.229-.144-3.344.786.036 1.566.066 2.343.092a69.653 69.653 0 0 0 4.673 0c.768-.026 1.545-.056 2.33-.092a3.953 3.953 0 0 0 0 1.568c-.559-.035-1.07-.07-1.531-.105-.463-.034-.952-.069-1.466-.104a52.546 52.546 0 0 0-3.887-.13c-.019.557-.04 1.088-.067 1.593-.025.505-.039 1.08-.039 1.724 0 .68.005 1.342.014 1.986.008.644.012 1.132.012 1.463a73.32 73.32 0 0 0 3.744-.092c.506-.026.973-.052 1.401-.078.427-.026.833-.056 1.217-.092a4.116 4.116 0 0 0 0 1.594 29.021 29.021 0 0 0-1.584-.131 42.928 42.928 0 0 0-1.806-.065l-1.702-.026a85.708 85.708 0 0 0-1.27-.013c0 .157-.004.327-.012.51-.01.183-.014.413-.014.692V13.582c0 .993.005 1.812.014 2.455.008.645.021 1.133.039 1.464h1.832a50.962 50.962 0 0 0 3.757-.144c.567-.043 1.06-.109 1.479-.196a1.875 1.875 0 0 0-.065.405 6.916 6.916 0 0 0-.013.405c0 .279.026.505.078.68a51.8 51.8 0 0 0-2.343-.053H18.64c-.785 0-1.58.017-2.382.053.052-1.116.1-2.225.144-3.332.043-1.106.066-2.233.066-3.383V7.443c0-1.15-.023-2.282-.066-3.397"/>
        <path d="M29.753 4.046a447.79 447.79 0 0 0-.144-3.344c.785.036 1.566.066 2.342.092a69.713 69.713 0 0 0 4.673 0c.769-.026 1.545-.056 2.33-.092a3.98 3.98 0 0 0 0 1.568c-.558-.035-1.069-.07-1.53-.105-.464-.034-.952-.069-1.467-.104a52.596 52.596 0 0 0-3.888-.13 75.39 75.39 0 0 1-.065 1.593c-.026.505-.04 1.08-.04 1.724 0 .68.005 1.342.014 1.986.008.644.013 1.132.013 1.463a73.31 73.31 0 0 0 3.743-.092c.507-.026.973-.052 1.401-.078.428-.026.834-.056 1.217-.092a4.143 4.143 0 0 0 0 1.594 29.068 29.068 0 0 0-1.584-.131 42.893 42.893 0 0 0-1.806-.065 532.55 532.55 0 0 1-1.702-.026 85.712 85.712 0 0 0-1.269-.013c0 .157-.005.327-.013.51-.01.183-.013.413-.013.692V13.582c0 .993.004 1.812.013 2.455.008.645.022 1.133.04 1.464h1.832a50.984 50.984 0 0 0 3.757-.144c.566-.043 1.06-.109 1.479-.196a1.853 1.853 0 0 0-.066.405 6.938 6.938 0 0 0-.013.405c0 .279.026.505.079.68a51.805 51.805 0 0 0-2.343-.053H31.99c-.785 0-1.58.017-2.382.053.052-1.116.1-2.225.144-3.332.043-1.106.065-2.233.065-3.383V7.443c0-1.15-.022-2.282-.065-3.397"/>
        <path d="M47.175 9.637c.54 0 1.1-.06 1.675-.183a4.469 4.469 0 0 0 1.584-.666c.48-.322.873-.766 1.178-1.332.305-.566.459-1.294.459-2.182 0-.748-.105-1.358-.315-1.828-.21-.47-.502-.837-.877-1.098-.376-.261-.833-.44-1.374-.535a10.575 10.575 0 0 0-1.833-.144h-2.356v7.76c.594.139 1.213.208 1.859.208m-4.07-5.552A557.795 557.795 0 0 0 42.96.702c.419.035.842.066 1.27.092.427.026.85.039 1.27.039.209 0 .462-.008.758-.026.297-.017.598-.03.904-.04.305-.008.597-.02.877-.039.279-.017.514-.026.707-.026.261 0 .584.01.968.026.384.018.79.07 1.218.157.427.088.85.218 1.27.392.418.174.798.427 1.138.758.34.33.615.744.825 1.24.21.497.314 1.11.314 1.842 0 1.15-.249 2.082-.746 2.796A5.4 5.4 0 0 1 51.9 9.585a7.27 7.27 0 0 1-2.303.81c-.812.14-1.532.209-2.16.209-.402 0-.768-.004-1.1-.013-.332-.009-.672-.03-1.02-.066v1.437c0 1.15.02 2.282.065 3.397.043 1.114.091 2.211.144 3.291a14.584 14.584 0 0 0-1.283-.052c-.454 0-.881.017-1.283.052.053-1.08.1-2.177.144-3.291.043-1.115.066-2.247.066-3.397V7.47c0-1.15-.023-2.277-.066-3.384"/>
        <path d="M65.461 4.086a557.795 557.795 0 0 0-.144-3.384c.227.036.445.066.654.092a5.077 5.077 0 0 0 1.257 0c.21-.026.428-.056.655-.092-.052 1.15-.1 2.278-.144 3.384a85.144 85.144 0 0 0-.066 3.383c0 2.194.009 4.097.027 5.708.017 1.611.034 3.053.052 4.324 1.24 0 2.426-.013 3.56-.04a33.705 33.705 0 0 0 3.665-.3c-.087.313-.13.575-.13.784 0 .192.043.427.13.705a54.436 54.436 0 0 0-2.408-.052H67.74c-.778 0-1.585.017-2.423.052.053-1.08.1-2.177.144-3.292.044-1.114.066-2.246.066-3.396V7.47c0-1.15-.022-2.277-.066-3.383"/>
        <g transform="translate(77.083 .122)">
            <mask id="b">
                <use xlink:href="#a"/>
            </mask>
            <path d="M16.56 5.845c-.367-1.054-.877-1.924-1.532-2.613a6.103 6.103 0 0 0-2.303-1.528 8.1 8.1 0 0 0-2.867-.496 8.02 8.02 0 0 0-2.84.496c-.882.33-1.65.84-2.304 1.528-.655.689-1.165 1.559-1.532 2.613-.366 1.054-.55 2.303-.55 3.749 0 1.446.184 2.695.55 3.748.367 1.055.877 1.925 1.532 2.613a6.089 6.089 0 0 0 2.304 1.528c.88.331 1.828.497 2.84.497 1.03 0 1.985-.166 2.867-.497.88-.33 1.649-.84 2.303-1.528.655-.688 1.165-1.558 1.532-2.613.367-1.053.55-2.302.55-3.748 0-1.446-.183-2.695-.55-3.75M.787 5.637c.48-1.159 1.152-2.138 2.016-2.94.864-.8 1.898-1.41 3.102-1.828C7.109.45 8.427.24 9.858.24c1.448 0 2.775.209 3.98.627 1.203.418 2.237 1.028 3.101 1.829.865.8 1.536 1.78 2.017 2.939.479 1.158.72 2.478.72 3.958s-.241 2.8-.72 3.957c-.48 1.16-1.152 2.138-2.017 2.94-.864.8-1.898 1.397-3.101 1.79-1.205.391-2.532.587-3.98.587-1.431 0-2.749-.196-3.953-.588-1.204-.392-2.238-.988-3.102-1.79-.864-.8-1.536-1.78-2.016-2.939-.48-1.158-.72-2.477-.72-3.957s.24-2.8.72-3.958" mask="url(#b)"/>
        </g>
        <g transform="translate(99.627 .122)">
            <mask id="d">
                <use xlink:href="#c"/>
            </mask>
            <path d="M16.74 5.845c-.367-1.054-.877-1.924-1.531-2.613a6.109 6.109 0 0 0-2.304-1.528 8.103 8.103 0 0 0-2.867-.496 8.02 8.02 0 0 0-2.84.496 6.1 6.1 0 0 0-2.304 1.528c-.654.689-1.165 1.559-1.531 2.613-.367 1.054-.55 2.303-.55 3.749 0 1.446.183 2.695.55 3.748.366 1.055.877 1.925 1.531 2.613a6.092 6.092 0 0 0 2.304 1.528c.88.331 1.828.497 2.84.497 1.03 0 1.985-.166 2.867-.497a6.1 6.1 0 0 0 2.304-1.528c.654-.688 1.164-1.558 1.53-2.613.368-1.053.551-2.302.551-3.748 0-1.446-.183-2.695-.55-3.75M.967 5.637c.48-1.159 1.152-2.138 2.016-2.94.864-.8 1.898-1.41 3.102-1.828C7.29.45 8.607.24 10.038.24c1.449 0 2.775.209 3.98.627 1.203.418 2.238 1.028 3.102 1.829.864.8 1.535 1.78 2.016 2.939.48 1.158.72 2.478.72 3.958s-.24 2.8-.72 3.957c-.48 1.16-1.152 2.138-2.016 2.94-.864.8-1.899 1.397-3.102 1.79-1.205.391-2.531.587-3.98.587-1.43 0-2.748-.196-3.953-.588-1.204-.392-2.238-.988-3.102-1.79-.864-.8-1.536-1.78-2.016-2.939-.48-1.158-.72-2.477-.72-3.957s.24-2.8.72-3.958" mask="url(#d)"/>
        </g>
        <path d="M123.343 15.359c.043-1.115.066-2.247.066-3.397V7.47c0-1.15-.023-2.277-.066-3.383a528.508 528.508 0 0 0-.144-3.383c.227.035.445.065.654.09a5.077 5.077 0 0 0 1.257 0c.21-.025.428-.055.655-.09-.052 1.149-.1 2.277-.144 3.383a85.826 85.826 0 0 0-.066 3.383v1.437c0 .14.053.208.158.208.069 0 .191-.078.366-.234a37.318 37.318 0 0 0 1.924-1.777 96.268 96.268 0 0 0 4.045-4.245c.663-.74 1.3-1.459 1.91-2.155.193.035.376.065.55.09.175.027.35.04.524.04.21 0 .42-.013.629-.04.21-.025.418-.055.628-.09-.611.522-1.3 1.14-2.069 1.854a176.09 176.09 0 0 0-2.316 2.195 106.97 106.97 0 0 0-2.226 2.207 46.732 46.732 0 0 0-1.767 1.894 647.6 647.6 0 0 1 4.28 4.847 547.754 547.754 0 0 0 4.386 4.95 5.883 5.883 0 0 0-.786-.052h-1.505a5.04 5.04 0 0 0-.72.052 96.23 96.23 0 0 1-2.08-2.455c-.76-.924-1.502-1.816-2.226-2.678a570.43 570.43 0 0 0-1.964-2.325c-.585-.688-1.017-1.172-1.295-1.45-.14-.14-.245-.21-.315-.21-.088 0-.13.053-.13.157v2.273c0 1.15.021 2.282.065 3.397.043 1.114.092 2.211.144 3.291a14.716 14.716 0 0 0-1.283-.052c-.454 0-.882.017-1.283.052.052-1.08.1-2.177.144-3.291"/>
        <path d="M140.255 4.086a529.71 529.71 0 0 0-.144-3.384c.227.036.445.066.654.092a5.077 5.077 0 0 0 1.257 0c.21-.026.427-.056.654-.092-.052 1.15-.1 2.278-.143 3.384a85.84 85.84 0 0 0-.066 3.383v4.493c0 1.15.022 2.282.066 3.396.043 1.115.091 2.212.143 3.292a14.57 14.57 0 0 0-1.282-.052c-.454 0-.882.017-1.283.052.052-1.08.1-2.177.144-3.292.043-1.114.066-2.246.066-3.396V7.47c0-1.15-.023-2.277-.066-3.383"/>
        <g transform="translate(147.622 .122)">
            <mask id="f">
                <use xlink:href="#e"/>
            </mask>
            <path d="M8.563 11.749c-2.269-2.43-4.538-4.846-6.807-7.25a137.99 137.99 0 0 0-.078 5.304c0 .365.004.819.013 1.358l.026 1.698c.009.592.022 1.194.04 1.803.017.61.034 1.176.052 1.698.017.522.035.98.052 1.371.017.392.035.658.053.798a7.302 7.302 0 0 0-.917-.053c-.35 0-.672.017-.968.053.035-.175.074-.497.118-.967a44.9 44.9 0 0 0 .117-1.685c.035-.654.074-1.363.118-2.13.043-.766.079-1.532.105-2.299.026-.766.048-1.515.066-2.247.017-.73.026-1.384.026-1.959 0-1.672-.005-3.109-.014-4.31A57.751 57.751 0 0 0 .5.24h.42a3661.35 3661.35 0 0 1 3.416 3.697A786.718 786.718 0 0 0 7.948 7.83c1.195 1.28 2.33 2.491 3.403 3.632a129.486 129.486 0 0 0 2.814 2.912v-3.553c0-1.829-.012-3.609-.038-5.342A117.638 117.638 0 0 0 13.956.58c.349.087.645.13.89.13.21 0 .488-.043.838-.13a54.47 54.47 0 0 0-.118 1.724 388.801 388.801 0 0 0-.249 5.016 50.574 50.574 0 0 0-.052 2.011V10.9c0 .592.004 1.21.013 1.855a2069.963 2069.963 0 0 0 .053 3.775c.009.566.013 1.058.013 1.476v.862h-.367a259.458 259.458 0 0 0-6.414-7.12" mask="url(#f)"/>
        </g>
        <g transform="translate(166.53 .122)">
            <mask id="h">
                <use xlink:href="#g"/>
            </mask>
            <path d="M15.325 2.827a7.075 7.075 0 0 0-1.31-.823 8.198 8.198 0 0 0-1.596-.574 7.625 7.625 0 0 0-1.872-.222c-1.082 0-2.09.165-3.024.496A6.45 6.45 0 0 0 5.09 3.232c-.69.689-1.23 1.559-1.623 2.613s-.59 2.303-.59 3.748c0 1.272.175 2.422.524 3.449.349 1.028.86 1.894 1.532 2.6a6.784 6.784 0 0 0 2.46 1.632c.97.383 2.064.575 3.286.575a13.2 13.2 0 0 0 2.317-.21 8.264 8.264 0 0 0 1.047-.26c.323-.105.597-.227.824-.366a98.138 98.138 0 0 0 .053-3.161c0-.61-.013-1.22-.04-1.829a86.638 86.638 0 0 0-.091-1.75c.436.087.855.13 1.256.13.192 0 .384-.008.576-.026a2.79 2.79 0 0 0 .55-.104c-.035.4-.061 1.032-.078 1.894-.017.862-.026 1.998-.026 3.41 0 .348.004.7.013 1.057s.013.71.013 1.058c-.367.14-.825.284-1.374.431-.55.148-1.135.27-1.754.366-.62.096-1.24.183-1.86.261-.62.08-1.182.118-1.688.118-1.553 0-2.954-.188-4.202-.562-1.247-.374-2.308-.953-3.18-1.737-.873-.784-1.545-1.76-2.016-2.926C.546 12.476.31 11.126.31 9.593c0-1.48.244-2.799.733-3.957a8.16 8.16 0 0 1 2.068-2.94c.89-.8 1.968-1.41 3.233-1.828C7.61.45 9.011.24 10.547.24c.89 0 1.68.048 2.37.144.688.095 1.3.222 1.832.378.532.157.999.323 1.4.497.402.174.76.34 1.074.496-.14.244-.267.557-.38.94-.114.384-.188.741-.223 1.072h-.314a6.799 6.799 0 0 0-.981-.94" mask="url(#h)"/>
        </g>
    </g>
</symbol><symbol id="ico-point" viewBox="0 0 8 22">
    <title>
        plus copy
    </title>
    <g transform="translate(-11 -4)" fill-rule="evenodd">
        <circle cx="15" cy="8" r="4"/>
        <path d="M15 10.5v14.036" stroke-width="2" stroke-linecap="round"/>
        <circle cx="16.5" cy="6.5" r="1"/>
    </g>
</symbol></svg>