<?xml version="1.0" encoding="UTF-8" standalone="no"?>
<svg  viewBox="0 0 10 10" version="1.1" xmlns="http://www.w3.org/2000/svg" xmlns:xlink="http://www.w3.org/1999/xlink">
    <!-- Generator: Sketch 41.2 (35397) - http://www.bohemiancoding.com/sketch -->
    <title>telegram black</title>
    <desc>Created with Sketch.</desc>
    <defs>
        <polygon id="path-1" points="8.99999242 0 0 0 0 7.99081949 8.99999242 7.99081949 8.99999242 1.73899561e-15"></polygon>
    </defs>
    <g id="Symbols" stroke="none" stroke-width="1" fill="none" fill-rule="evenodd">
        <g id="telegram-black">
            <g id="Page-1" transform="translate(1.000000, 1.000000)">
                <mask id="mask-2" fill="white">
                    <use xlink:href="#path-1"></use>
                </mask>
                <g id="Clip-2"></g>
                <path d="M2.9060595,4.20069904 L6.9589995,1.65516941 C7.0318395,1.60955564 7.1067795,1.70999159 7.0442295,1.76915793 L3.6993795,4.93978891 C3.5818095,5.0513912 3.5059695,5.20074493 3.4844895,5.36287113 L3.3705495,6.22393423 C3.3554595,6.33888642 3.1970895,6.35029751 3.1659795,6.23903174 L2.7277695,4.66885966 C2.6775795,4.48976979 2.7507195,4.29848872 2.9060595,4.20069904 M0.1589595,3.83156711 L2.2327395,4.62085966 L3.0354195,7.25327266 C3.0867795,7.42186922 3.2889495,7.48418662 3.4231395,7.37230899 L4.5791145,6.41134532 C4.7002695,6.31064933 4.8728745,6.30563212 4.9994895,6.39936826 L7.0844295,7.94298585 C7.2279795,8.04938738 7.4313495,7.96917323 7.4673495,7.79228604 L8.9946945,0.300400765 C9.0339795,0.107177055 8.8477995,-0.0540160612 8.6673795,0.0171426386 L0.1565295,3.36524207 C-0.0535005,3.44784245 -0.0516705,3.75107763 0.1589595,3.83156711" id="Fill-1" fill="#000000" mask="url(#mask-2)"></path>
            </g>
        </g>
    </g>
</svg>