<?xml version="1.0" encoding="UTF-8" standalone="no"?>


<svg viewBox="0 0 19 11" version="1.1" xmlns="http://www.w3.org/2000/svg" xmlns:xlink="http://www.w3.org/1999/xlink">
    <!-- Generator: Sketch 41.2 (35397) - http://www.bohemiancoding.com/sketch -->
    <title>vk</title>
    <desc>Created with Sketch.</desc>
    <defs></defs>

    <g id="Symbols"  stroke="none" stroke-width="1" fill="none" fill-rule="evenodd">
        <g id="vk" fill="#000000">
            <path d="M14.769875,5.413 C14.769875,5.413 16.7945,2.555875 16.997,1.6165 C17.063,1.28125 16.916,1.09375 16.56725,1.09375 L14.809625,1.09375 C14.408,1.09375 14.26025,1.26775 14.13875,1.52275 C14.13875,1.52275 13.188875,3.546625 12.033875,4.82275 C11.661875,5.23525 11.474375,5.359375 11.268125,5.359375 C11.1035,5.359375 11.02775,5.22175 11.02775,4.849375 L11.02775,1.59025 C11.02775,1.133875 10.97375,1 10.597625,1 L7.781375,1 C7.566875,1 7.433,1.124875 7.433,1.295125 C7.433,1.7245 8.089625,1.821625 8.089625,2.98525 L8.089625,5.385625 C8.089625,5.86825 8.063,6.056875 7.835375,6.056875 C7.23125,6.056875 5.795375,3.9775 4.991,1.6165 C4.8305,1.133875 4.65575,1 4.19975,1 L2.4425,1 C2.18825,1 2,1.174 2,1.429375 C2,1.898875 2.550125,4.071625 4.709375,6.982375 C6.15875,8.940625 8.063,10 9.779375,10 C10.825625,10 11.081,9.82525 11.081,9.383125 L11.081,7.88125 C11.081,7.5055 11.229125,7.345 11.44325,7.345 C11.684375,7.345 12.11075,7.42225 13.106,8.403625 C14.286875,9.530875 14.367125,10 15.011,10 L16.9835,10 C17.1845,10 17.37125,9.906625 17.37125,9.571 C17.37125,9.128125 16.7945,8.3365 15.91025,7.3975 C15.547625,6.9145 14.957,6.392125 14.769875,6.15025 C14.501375,5.86825 14.582,5.70775 14.769875,5.413" id="Fill-1"></path>
        </g>
    </g>
</svg>